<svg data-icon-name="alarm" data-style="glyph" icon_origin_id="4598" viewBox="0 0 24 24" xmlns="http://www.w3.org/2000/svg" id="alarm" class="icon glyph" width="48" height="48"><path style="fill: rgb(0, 0, 0);" d="M20,13A8,8,0,0,1,4,13a8.2,8.2,0,0,1,.14-1.5,8,8,0,0,0,15.72,0A8.2,8.2,0,0,1,20,13Z" id="tertiary-fill"></path><path style="fill: rgb(0, 0, 0); stroke: rgb(101, 45, 144); stroke-linecap: round; stroke-linejoin: round; stroke-width: 2px;" d="M19.5,13.5A7.5,7.5,0,1,1,12,6,7.5,7.5,0,0,1,19.5,13.5ZM9,3h6M12,3V6" id="primary-stroke"></path><polyline style="fill: rgb(0, 0, 0); stroke: rgb(246, 146, 30); stroke-linecap: round; stroke-linejoin: round; stroke-width: 2px;" points="12 10 12 13 14 15" id="secondary-stroke"></polyline></svg>